{"accessors" : [{"bufferView" : 0, "byteOffset" : 0, "componentType" : 5123, "count" : 1248, "type" : "SCALAR", "max" : [1247], "min" : [0]}, {"bufferView" : 1, "byteOffset" : 0, "componentType" : 5126, "count" : 1248, "type" : "VEC3", "max" : [520, 770, -3.92498779296875], "min" : [-520, -770, -273.92498779296875], "name" : "POSITION"}, {"bufferView" : 1, "byteOffset" : 12, "componentType" : 5126, "count" : 1248, "type" : "VEC3", "max" : [1.0000044107437134, 1.0000044107437134, 1.0000044107437134], "min" : [-1.0000044107437134, -1.0000044107437134, -1.0000044107437134], "name" : "NORMAL"}, {"bufferView" : 1, "byteOffset" : 24, "componentType" : 5126, "count" : 1248, "type" : "VEC2", "max" : [1, -0], "min" : [-5.960464477539063E-08, -1], "name" : "TEXCOORD_0"}], "asset" : {"generator" : "Aspose.3D 21.11", "version" : "2.0"}, "buffers" : [{"uri" : "data:application/octet-stream;base64,", "byteLength" : 42440}], "bufferViews" : [{"buffer" : 0, "byteOffset" : 0, "byteLength" : 2496, "target" : 34963}, {"buffer" : 0, "byteOffset" : 2500, "byteLength" : 39936, "byteStride" : 32, "target" : 34962}], "meshes" : [{"primitives" : [{"attributes" : {"POSITION" : 1, "NORMAL" : 2, "TEXCOORD_0" : 3}, "indices" : 0, "mode" : 4}], "name" : ""}], "nodes" : [{"matrix" : [1, 0, 0, 0, 0, 2.220446049250313E-16, -1, 0, 0, 1, 2.220446049250313E-16, 0, 0, 873.9249877929688, 0, 1], "mesh" : 0, "name" : "Roof001"}], "scene" : 0, "scenes" : [{"nodes" : [0]}]}